<?xml version="1.0" encoding="utf-8"?>
<!-- Generator: Adobe Illustrator 15.1.0, SVG Export Plug-In . SVG Version: 6.00 Build 0)  -->
<!DOCTYPE svg PUBLIC "-//W3C//DTD SVG 1.1//EN" "http://www.w3.org/Graphics/SVG/1.1/DTD/svg11.dtd">
<svg version="1.1" id="Layer_1" xmlns="http://www.w3.org/2000/svg" xmlns:xlink="http://www.w3.org/1999/xlink" x="0px" y="0px"
	 width="500px" height="500px" viewBox="0 0 500 500" enable-background="new 0 0 500 500" xml:space="preserve">
<g id="path4233" opacity="0.405" enable-background="new    ">
	<path opacity="0.9961" fill="#211F46" d="M476.639,250.677c0,127.008-101.93,229.98-227.662,229.98
		c-125.728,0-227.652-102.973-227.652-229.98c0-127.015,101.924-229.98,227.652-229.98
		C374.709,20.696,476.639,123.662,476.639,250.677z"/>
	<path fill="none" stroke="#0A0B1B" stroke-width="1.0526" d="M476.639,250.677c0,127.008-101.93,229.98-227.662,229.98
		c-125.728,0-227.652-102.973-227.652-229.98c0-127.015,101.924-229.98,227.652-229.98
		C374.709,20.696,476.639,123.662,476.639,250.677z"/>
</g>
<path id="path4235" stroke="#000000" stroke-width="10.4167" stroke-miterlimit="10" d="M476.639,250.677
	c0,127.008-101.93,229.98-227.662,229.98c-125.728,0-227.652-102.973-227.652-229.98c0-127.015,101.924-229.98,227.652-229.98
	C374.709,20.696,476.639,123.662,476.639,250.677z"/>
<path id="path4237" fill="#FFFFFF" d="M170.729,412.212c0,0,19.278,1.362,44.076-0.817c10.043-0.892,48.162-4.638,76.68-10.881
	c0,0,34.763-7.447,53.353-14.292c19.448-7.175,30.03-13.26,34.8-21.879c-0.205-1.776,1.476-8.029-7.491-11.794
	c-22.949-9.625-49.543-7.879-102.203-9.005c-58.368-2.001-77.786-11.767-88.129-19.646c-9.92-7.98-4.934-30.064,37.57-49.522
	c21.414-10.356,105.342-29.48,105.342-29.48c-28.263-13.967-80.97-38.531-91.806-43.837c-9.508-4.647-24.71-11.657-28.01-20.131
	c-3.732-8.131,8.831-15.142,15.85-17.151c22.598-6.521,54.509-10.569,83.552-11.024c14.583-0.23,16.969-1.164,16.969-1.164
	c20.141-3.344,33.381-17.123,27.87-38.945c-4.957-22.283-31.118-35.368-55.965-30.837c-23.419,4.268-79.829,20.658-79.829,20.658
	c69.736-0.606,81.406,0.559,86.617,7.845c3.082,4.306-1.398,10.202-19.99,13.245c-20.245,3.305-62.34,7.291-62.34,7.291
	c-40.377,2.394-68.819,2.559-77.345,20.616c-5.574,11.798,5.943,22.23,10.99,28.761c21.325,23.715,52.133,36.508,71.965,45.927
	c7.46,3.544,29.357,10.24,29.357,10.24c-64.334-3.535-110.745,16.22-137.966,38.963c-30.79,28.481-17.169,62.427,45.907,83.328
	c37.259,12.337,55.739,18.149,111.311,13.145c32.732-1.765,37.906-0.713,38.226,1.972c0.45,3.785-36.358,13.176-46.415,16.078
	C238.103,397.245,171.067,412.138,170.729,412.212z"/>
</svg>
