<?xml version="1.0" encoding="utf-8"?>
<!-- Generator: Adobe Illustrator 15.1.0, SVG Export Plug-In . SVG Version: 6.00 Build 0)  -->
<!DOCTYPE svg PUBLIC "-//W3C//DTD SVG 1.1//EN" "http://www.w3.org/Graphics/SVG/1.1/DTD/svg11.dtd">
<svg version="1.1" id="Layer_1" xmlns="http://www.w3.org/2000/svg" xmlns:xlink="http://www.w3.org/1999/xlink" x="0px" y="0px"
	 width="100px" height="100px" viewBox="200 200 100 100" enable-background="new 200 200 100 100" xml:space="preserve">
<path d="M290.625,212.5h-81.25c-5.178,0-9.375,4.197-9.375,9.375v56.25c0,5.178,4.197,9.375,9.375,9.375h81.25
	c5.178,0,9.375-4.197,9.375-9.375v-56.25C300,216.697,295.803,212.5,290.625,212.5z M290.625,221.875v7.97
	c-4.379,3.566-11.36,9.112-26.286,20.799c-3.289,2.588-9.805,8.804-14.339,8.73c-4.533,0.073-11.05-6.144-14.338-8.73
	c-14.923-11.686-21.907-17.232-26.287-20.799v-7.97H290.625z M209.375,278.125v-36.25c4.476,3.564,10.822,8.566,20.496,16.142
	c4.269,3.36,11.745,10.778,20.129,10.733c8.344,0.045,15.725-7.266,20.128-10.731c9.673-7.575,16.021-12.579,20.497-16.144v36.25
	H209.375z"/>
</svg>
