<?xml version="1.0" encoding="utf-8"?>
<!-- Generator: Adobe Illustrator 15.1.0, SVG Export Plug-In . SVG Version: 6.00 Build 0)  -->
<!DOCTYPE svg PUBLIC "-//W3C//DTD SVG 1.1//EN" "http://www.w3.org/Graphics/SVG/1.1/DTD/svg11.dtd">
<svg version="1.1" id="Layer_1" xmlns="http://www.w3.org/2000/svg" xmlns:xlink="http://www.w3.org/1999/xlink" x="0px" y="0px"
	 width="100px" height="100px" viewBox="200 200 100 100" enable-background="new 200 200 100 100" xml:space="preserve">
<path d="M290.625,212.5h-81.25c-5.176,0-9.375,4.199-9.375,9.375v56.25c0,5.176,4.199,9.375,9.375,9.375h81.25
	c5.176,0,9.375-4.199,9.375-9.375v-56.25C300,216.699,295.801,212.5,290.625,212.5z M209.375,218.75h81.25
	c1.719,0,3.125,1.406,3.125,3.125v8.086c-4.277,3.613-10.391,8.594-29.414,23.691c-3.301,2.617-9.805,8.926-14.336,8.848
	c-4.531,0.078-11.055-6.23-14.336-8.848c-19.023-15.098-25.137-20.078-29.414-23.691v-8.086
	C206.25,220.156,207.656,218.75,209.375,218.75z M290.625,281.25h-81.25c-1.719,0-3.125-1.406-3.125-3.125v-40.039
	c4.453,3.652,11.484,9.297,25.527,20.449c4.004,3.203,11.074,10.254,18.223,10.215c7.109,0.059,14.121-6.934,18.223-10.215
	c14.043-11.152,21.074-16.797,25.527-20.449v40.039C293.75,279.844,292.344,281.25,290.625,281.25z"/>
</svg>
