<?xml version="1.0" encoding="utf-8"?>
<!-- Generator: Adobe Illustrator 15.1.0, SVG Export Plug-In . SVG Version: 6.00 Build 0)  -->
<!DOCTYPE svg PUBLIC "-//W3C//DTD SVG 1.1//EN" "http://www.w3.org/Graphics/SVG/1.1/DTD/svg11.dtd">
<svg version="1.1" id="Layer_1" xmlns="http://www.w3.org/2000/svg" xmlns:xlink="http://www.w3.org/1999/xlink" x="0px" y="0px"
	 width="500px" height="500px" viewBox="0 0 500 500" enable-background="new 0 0 500 500" xml:space="preserve">
<path d="M329.435,381.135l-13.688,23.881l-4.466,77.854c0,8.64-27.473,15.63-61.254,15.63c-33.783,0-61.255-6.99-61.255-15.63
	l-5.631-77.078l-14.464-24.657C208.672,397.929,290.993,397.346,329.435,381.135z M139.166,135.24l13.202,121.831
	c5.728-19.415,20.192-45.625,38.831-53.586c6.116-2.621,12.329-2.621,18.153,0.874c5.048,2.913,9.319,9.028,9.805,11.455
	c1.165,6.31-1.941,8.834-4.368,8.834c-2.913,0-5.146-4.465-6.602-7.086c-3.98-7.086-9.999-7.378-16.406-2.718
	c-6.698,4.854-12.523,13.008-16.6,20.095c-4.951,8.543-9.125,17.959-11.649,27.376c-1.456,5.436-2.815,14.173-0.582,19.318
	c0.971,2.135,2.427,3.495,4.757,3.495c4.854,0,11.94-6.407,15.338-9.806c4.369-4.368,9.999-11.163,12.135-15.532l5.048-15.047
	c2.524-6.602,9.61-5.437,9.61,0c0,9.901-3.592,13.203-9.707,33.686c-5.631,18.93-7.378,25.046-7.378,25.046
	c-0.679,2.718-3.3,7.281-6.116,7.281c-1.165,0-2.038-0.389-2.523-1.166c-0.972-1.358-0.874-5.145-0.777-6.115
	c0.194-3.106,6.116-21.551,7.086-24.464c-1.941,2.137-3.98,4.271-6.213,6.407c-5.242,4.951-13.688,11.455-20.872,11.455
	c-3.3,0-5.436-0.874-7.475-2.33l7.377,77.273c1.941,4.854,38.054,16.601,85.622,16.601c47.664,0,83.777-11.844,85.621-16.601
	l10.581-91.835c-5.532,5.049-11.939,11.262-19.026,14.368c-5.242,2.232-16.892,3.688-16.892-5.533
	c0-5.049,8.834-14.367,13.979-20.872c1.36-1.65,4.563-5.728,4.563-7.863c0-2.814-5.824-2.135-11.358,2.427
	c-3.105,2.622-6.019,6.116-8.445,9.417c-4.175,5.824-6.407,10.872-8.251,15.047c-6.02,13.784-3.98,8.349-8.834,21.356
	c-4.854,12.911-4.078,11.455-5.049,13.591c-0.873,1.845-2.135,3.397-3.883,4.369c-1.845,0.971-4.369,0.873-5.921-0.292
	c-0.875-0.582-1.263-1.845-1.263-3.592c0-0.873,0.097-1.748,0.292-2.621c1.456-5.922,7.571-17.571,14.562-33.297
	c1.552-3.592,0.971-2.524,0.776-2.233c-6.02,5.824-10.582,8.641-13.979,10.193c-5.631,2.524-12.62,2.524-14.076-3.979
	c-0.097-0.39-0.097-0.777-0.194-1.165c-11.453,8.931-23.589,11.358-19.415-7.864c-4.465,7.961-12.231,14.465-21.745,14.465
	c-3.98,0-6.893-1.359-8.349-4.95c-2.233-5.339,1.262-14.465,4.466-23.104c1.65-4.369,3.883-9.61,6.892-15.727
	c1.553-3.301,4.078-5.243,7.378-4.369c0.583,0.194,1.068,0.389,1.553,0.68c2.524,1.748,1.553,4.369,0.291,6.99
	c-3.688,7.28-6.892,12.62-9.028,20.191c-0.874,3.204-1.941,8.737,1.456,8.737c2.33,0,4.562-0.776,6.698-2.33
	c4.466-3.3,8.058-8.251,10.776-13.105c1.941-3.495,4.271-8.057,5.436-11.939c0.485-1.651,1.068-3.204,1.748-4.66
	c1.068-2.428,2.523-4.952,5.048-4.952c1.262,0,2.329,0.485,3.106,1.457c1.649,2.136,1.262,4.368,0.388,6.699
	c-1.941,5.436-4.562,10.289-6.697,16.211c-1.262,3.397-2.621,7.766-2.621,11.358c0,3.3,3.592,2.524,6.601,1.164
	c2.33-1.067,4.66-2.718,6.602-4.368c1.165-4.757,0.873-3.688,25.628-66.206c1.263-3.204,3.592-4.563,5.922-4.563
	c1.165,0,2.136,0.389,3.106,1.068c1.649,1.262,1.649,3.98,0.971,6.019c-0.68,1.845-0.582,1.262-4.368,10.193
	c-5.049,11.747-8.349,20.192-12.814,30.968c-1.845,4.466-7.476,18.348-8.446,21.647c-0.581,2.137-1.262,5.632,0.971,5.632
	c5.243,0,18.736-12.718,22.425-16.504c0.194-0.291,0.485-0.389,0.874-0.582c0.582-1.845,1.165-3.593,1.65-5.34
	c1.358-3.689,2.621-7.96,5.145-10.97c0.777-0.971,1.65-1.553,2.622-1.553c2.718,0,4.077,1.166,4.077,3.884
	c0,1.066-0.68,4.949-1.068,6.018c1.359-1.456,2.815-2.912,4.369-4.368c14.562-13.494,24.947-6.602,24.947,0.194
	c0,7.184-8.64,17.182-13.396,22.716c-1.554,1.844-4.757,5.242-4.854,6.213c0,1.263,0.874,1.748,2.137,1.748
	c1.941,0,6.213-3.398,7.766-4.563c4.854-3.786,11.455-9.61,16.114-13.688l14.368-132.801
	C331.183,151.646,168.968,151.743,139.166,135.24L139.166,135.24z M362.149,126.988c0,20.386-224.44,20.386-224.44,0
	c0-8.543,50.286-15.436,112.22-15.436c8.736,0,17.279,0.097,25.531,0.389l12.23-47.276L347.2,2.051
	c1.358-1.359,5.63-0.194,9.61,3.398s6.407,7.669,5.145,9.028l-0.098,0.097l-55.624,58.731l-9.708,39.51
	C335.259,115.339,362.149,120.678,362.149,126.988z M294.778,131.454c0-0.776-0.873-1.457-2.427-2.039l-0.194,0.777
	c0,1.262-4.854,2.33-10.775,2.33c-5.921,0-10.775-1.068-10.775-2.33c0-0.097,0-0.195,0.097-0.292l0.194-0.679
	c-1.747,0.582-2.912,1.359-2.912,2.232c0,2.039,6.02,3.592,13.3,3.592C288.76,135.143,294.778,133.492,294.778,131.454
	L294.778,131.454z"/>
</svg>
