<?xml version="1.0" encoding="utf-8"?>
<!-- Generator: Adobe Illustrator 15.1.0, SVG Export Plug-In . SVG Version: 6.00 Build 0)  -->
<!DOCTYPE svg PUBLIC "-//W3C//DTD SVG 1.1//EN" "http://www.w3.org/Graphics/SVG/1.1/DTD/svg11.dtd">
<svg version="1.1" id="Layer_1" xmlns="http://www.w3.org/2000/svg" xmlns:xlink="http://www.w3.org/1999/xlink" x="0px" y="0px"
	 width="500px" height="500px" viewBox="0 0 500 500" enable-background="new 0 0 500 500" xml:space="preserve">
<path d="M421.875,31.25H78.125c-25.879,0-46.875,20.996-46.875,46.875v343.75c0,25.879,20.996,46.875,46.875,46.875h343.75
	c25.879,0,46.875-20.996,46.875-46.875V78.125C468.75,52.246,447.754,31.25,421.875,31.25z M269.336,372.461
	c0,42.578-25,62.012-61.426,62.012c-32.91,0-51.953-16.992-61.719-37.598l33.496-20.215c6.445,11.426,12.305,21.094,26.465,21.094
	c13.477,0,22.07-5.273,22.07-25.879V232.129h41.113V372.461L269.336,372.461z M366.602,434.473
	c-38.184,0-62.891-18.164-74.902-41.992l33.496-19.336c8.789,14.355,20.312,25,40.527,25c16.992,0,27.93-8.496,27.93-20.312
	c0-14.062-11.133-19.043-29.98-27.344l-10.254-4.395c-29.688-12.598-49.316-28.516-49.316-62.012
	c0-30.859,23.535-54.297,60.156-54.297c26.172,0,44.922,9.082,58.398,32.91l-32.031,20.508
	c-7.031-12.598-14.648-17.578-26.465-17.578c-12.012,0-19.629,7.617-19.629,17.578c0,12.305,7.617,17.285,25.293,25l10.254,4.395
	c34.961,14.941,54.59,30.273,54.59,64.648C434.668,414.16,405.566,434.473,366.602,434.473L366.602,434.473z"/>
</svg>
